<svg xmlns="http://www.w3.org/2000/svg" fill="none" width="22" height="22" viewBox="0 0 22 22"><defs><clipPath id="a"><rect width="22" height="22" rx="0"/></clipPath></defs><g style="mix-blend-mode:passthrough" clip-path="url(#a)"><path d="M2.8 10.083h3.663a14.942 14.942 0 0 1 2.453-7.067A8.257 8.257 0 0 0 2.8 10.083zM11 3.255a13.11 13.11 0 0 0-2.697 6.828h5.394A13.108 13.108 0 0 0 11 3.255zm2.697 8.662A13.107 13.107 0 0 1 11 18.745a13.109 13.109 0 0 1-2.697-6.828h5.394zm-7.234 0H2.8a8.257 8.257 0 0 0 6.115 7.067 14.943 14.943 0 0 1-2.453-7.067zm6.622 7.067a14.942 14.942 0 0 0 2.453-7.067H19.2a8.257 8.257 0 0 1-6.115 7.067zm6.115-8.9h-3.662a14.942 14.942 0 0 0-2.453-7.068 8.257 8.257 0 0 1 6.115 7.067zM.917 11C.917 5.431 5.431.917 11 .917 16.57.917 21.084 5.43 21.084 11S16.569 21.083 11 21.083.917 16.57.917 11z" fill-rule="evenodd" fill="#FFF"/></g></svg>