<?xml version="1.0" standalone="no"?>
<!DOCTYPE svg PUBLIC "-//W3C//DTD SVG 20010904//EN"
 "http://www.w3.org/TR/2001/REC-SVG-20010904/DTD/svg10.dtd">
<svg version="1.0" xmlns="http://www.w3.org/2000/svg"
 width="700.000000pt" height="700.000000pt" viewBox="0 0 700.000000 700.000000"
 preserveAspectRatio="xMidYMid meet">
<metadata>
Created by potrace 1.14, written by Peter Selinger 2001-2017
</metadata>
<g transform="translate(0.000000,700.000000) scale(0.100000,-0.100000)"
fill="#000000" stroke="none">
<path d="M3447 6404 c-1 -1 -47 -5 -102 -8 -55 -4 -127 -11 -160 -16 -33 -5
-79 -12 -103 -15 -49 -6 -47 -5 -197 -40 -935 -219 -1720 -893 -2073 -1781
-54 -135 -114 -330 -138 -449 -46 -226 -61 -386 -59 -610 2 -164 9 -266 22
-350 4 -22 7 -49 8 -60 9 -88 71 -345 117 -480 113 -337 296 -659 536 -945 82
-98 292 -306 359 -356 21 -16 47 -37 58 -47 11 -11 63 -50 115 -87 350 -251
787 -436 1190 -506 14 -2 36 -7 50 -9 117 -23 324 -39 505 -39 128 0 343 12
355 19 3 2 34 6 70 10 35 3 67 8 71 11 4 2 22 6 40 8 224 29 587 153 848 289
181 94 433 265 571 387 59 52 182 173 240 236 267 288 532 743 579 994 6 35 9
285 8 675 -2 586 -3 622 -21 658 -81 163 -294 200 -420 73 -74 -74 -75 -85
-78 -558 -2 -230 -6 -418 -10 -418 -5 0 -29 15 -55 34 -219 156 -506 193 -765
100 -158 -57 -290 -161 -404 -317 -187 -255 -441 -426 -738 -497 -168 -41
-363 -46 -531 -15 -207 38 -450 161 -616 310 -214 193 -365 485 -395 764 -15
145 -6 301 26 423 59 225 166 413 330 576 305 303 734 428 1164 337 300 -63
569 -241 763 -505 38 -52 98 -121 132 -152 155 -144 364 -221 580 -213 138 5
220 25 336 81 58 29 235 149 310 212 11 9 109 84 218 165 108 82 196 151 193
155 -2 4 -10 23 -19 42 -87 198 -127 286 -160 345 -21 39 -41 78 -44 88 -3 9
-9 17 -14 17 -5 0 -9 5 -9 11 0 16 -122 200 -198 299 -158 205 -331 376 -557
553 -109 85 -314 212 -465 288 -287 143 -603 241 -920 284 -25 3 -56 8 -70 10
-83 12 -463 27 -473 19z m360 -519 c42 -4 83 -8 92 -10 9 -1 41 -6 71 -11 30
-4 57 -8 60 -9 3 -1 23 -5 45 -9 22 -5 63 -14 91 -22 28 -8 62 -17 74 -19 90
-17 326 -111 477 -190 315 -164 577 -385 799 -675 47 -61 134 -187 134 -195 0
-1 18 -33 41 -70 25 -42 37 -71 31 -77 -5 -5 -72 -56 -148 -113 -177 -133
-247 -158 -361 -129 -76 20 -125 56 -189 143 -98 130 -193 234 -294 321 -14
12 -36 30 -49 41 -113 98 -362 232 -541 292 -186 63 -338 88 -550 91 -376 6
-726 -98 -1033 -306 -71 -48 -78 -54 -176 -139 -246 -215 -423 -489 -517 -804
-14 -44 -27 -91 -29 -105 -14 -75 -27 -145 -31 -173 -3 -18 -7 -102 -9 -187
-5 -278 45 -507 166 -755 83 -170 137 -255 238 -374 300 -354 708 -573 1164
-624 633 -72 1258 198 1637 705 76 102 133 150 203 169 80 21 168 12 227 -24
32 -20 183 -130 220 -160 8 -7 30 -23 48 -36 l33 -23 -42 -76 c-53 -96 -148
-235 -230 -336 -80 -97 -304 -312 -404 -387 -324 -245 -753 -422 -1140 -472
-213 -28 -536 -29 -676 -2 -12 2 -42 7 -67 10 -26 3 -54 7 -62 10 -8 2 -26 6
-40 9 -14 2 -54 12 -90 21 -36 9 -72 18 -80 20 -8 2 -46 13 -85 25 -267 85
-548 236 -780 419 -67 52 -302 282 -355 346 -175 211 -319 464 -415 730 -135
374 -168 817 -89 1225 53 277 178 586 328 815 41 63 145 206 155 215 3 3 29
32 56 65 74 89 207 216 320 308 312 252 706 434 1088 502 112 20 148 25 257
32 47 3 86 6 87 7 6 5 266 -2 340 -9z"/>
<path d="M3295 4335 c-76 -23 -147 -66 -204 -124 -68 -70 -71 -74 -99 -135
-66 -139 -50 -323 37 -450 166 -240 503 -279 718 -82 204 186 201 505 -5 687
-91 80 -206 121 -332 118 -41 -1 -93 -8 -115 -14z"/>
</g>
</svg>
