<svg xmlns="http://www.w3.org/2000/svg" fill="none" width="541.116" height="540" viewBox="0 0 541.116 540"><defs><filter id="a" filterUnits="objectBoundingBox" color-interpolation-filters="sRGB" x="-20.5" y="-16.5" width="541.116" height="540"><feFlood flood-opacity="0" result="BackgroundImageFix"/><feColorMatrix in="SourceAlpha" values="0 0 0 0 0 0 0 0 0 0 0 0 0 0 0 0 0 0 127 0"/><feOffset dy="4"/><feGaussianBlur stdDeviation="5"/><feColorMatrix values="0 0 0 0 0.6514660120010376 0 0 0 0 0.44618359208106995 0 0 0 0 0.9160000085830688 0 0 0 0.4000000059604645 0"/><feBlend in2="BackgroundImageFix" result="effect1_dropShadow"/><feBlend in="SourceGraphic" in2="effect1_dropShadow" result="shape"/></filter></defs><path d="M473.373 241.255q0-4.535 1.814-8.693 1.751-4.012 4.938-7.114 3.184-3.1 7.302-4.803 4.265-1.764 8.916-1.764h.5v.773h-.5v-.5q4.651.001 8.917 1.764 4.118 1.703 7.302 4.804 3.187 3.101 4.938 7.113 1.814 4.158 1.815 8.693v94.879q0 13.82-5.38 25.905-14.833 34.672-39.282 63.423-23.965 28.177-55.247 48.453-31.269 20.265-67.222 30.936Q315.531 516 276.97 516q-25.43 0-50.154-4.751-24.515-4.712-47.57-13.946-23.039-9.229-43.878-22.679-20.986-13.546-39.074-30.948-18.09-17.506-32.221-37.794-14.033-20.148-23.753-42.446-9.722-22.305-14.834-46.094-5.151-23.97-5.466-48.738-.316-24.844 4.45-49.135 4.72-24.052 14.268-46.798 9.529-22.7 23.554-43.352 14.11-20.779 32.311-38.803 18.303-17.919 39.498-31.87 21.052-13.856 44.3-23.366 23.27-9.52 47.992-14.379Q251.334 16 276.97 16q38.551 0 75.18 10.876 35.907 10.663 67.186 30.936 31.268 20.265 55.316 48.453 24.516 28.735 39.565 63.427l6.9 15.948-51.158 38.243q-11.904 8.897-26.339 12.423-14.49 3.54-29.098 1.067-14.652-2.48-26.797-10.118-12.174-7.655-20.44-19.62-7.497-10.947-17.492-19.758-9.856-8.69-21.582-14.808-11.729-6.121-24.624-9.297-13.087-3.224-26.617-3.224-21.947 0-41.978 8.267-19.904 8.216-35.477 23.58-15.367 15.368-23.342 35.035-8.033 19.81-7.407 41.153.515 20.748 9.224 39.756 8.412 18.36 23.275 32.594 14.86 14.23 33.87 22.137 19.671 8.182 40.997 8.382 13.734-.001 26.896-3.177 12.962-3.129 24.694-9.174 11.706-6.031 21.546-14.633 9.951-8.698 17.456-19.556 8.493-12.195 21.107-20.099 12.635-7.918 27.26-10.187 14.868-2.274 28.916 1.17 14.09 3.455 25.952 12.321l3.651 2.735-.299.4-.5-.004.562-69.997v.004zm1 .004l-.57 70.986-4.443-3.327q-11.698-8.744-25.59-12.151-13.856-3.396-28.526-1.153-14.42 2.238-26.882 10.046-12.44 7.796-20.816 19.821-7.576 10.959-17.62 19.74-9.93 8.682-21.746 14.769-11.839 6.099-24.917 9.257-13.278 3.204-27.14 3.205-21.52-.202-41.373-8.459-19.182-7.977-34.176-22.338-15-14.366-23.493-32.899-8.794-19.194-9.314-40.144-.633-21.552 7.48-41.558 8.051-19.854 23.566-35.371 15.712-15.502 35.798-23.792 20.214-8.343 42.36-8.343 13.65 0 26.856 3.253 13.011 3.205 24.847 9.381 11.833 6.175 21.78 14.944 10.09 8.894 17.654 19.94 8.148 11.796 20.15 19.343 11.976 7.531 26.431 9.978 14.404 2.439 28.694-1.052 14.237-3.478 25.977-12.253l50.841-38.006.3.4-.46.199-6.74-15.585q-14.992-34.554-39.41-63.176-23.953-28.077-55.099-48.263-31.157-20.194-66.928-30.816Q315.377 17 276.97 17q-25.538 0-50.384 4.882-24.627 4.84-47.808 14.323-23.156 9.473-44.128 23.277-21.114 13.897-39.343 31.745-18.132 17.956-32.188 38.653-13.969 20.57-23.46 43.178-9.508 22.652-14.207 46.603-4.746 24.191-4.433 48.93.315 24.668 5.445 48.541 5.09 23.692 14.773 45.905 9.68 22.209 23.656 42.273 14.076 20.208 32.094 37.646 18.018 17.333 38.924 30.828 20.757 13.398 43.707 22.591 22.965 9.199 47.387 13.892Q251.635 515 276.97 515q38.415 0 74.93-10.835 35.815-10.63 66.962-30.816 31.161-20.197 55.03-48.262 24.35-28.636 39.13-63.182 5.292-11.891 5.293-25.498v-94.879q0-4.326-1.732-8.293-1.672-3.832-4.718-6.797-3.047-2.966-6.987-4.595-4.082-1.688-8.535-1.689h-.5v-.773h.5v.5q-4.452 0-8.534 1.688-3.94 1.63-6.987 4.596-3.045 2.965-4.718 6.797-1.73 3.967-1.73 8.293l-.002.004zm-69.193-58.535q2.938 4.085 7.127 6.703 4.307 2.692 9.397 3.485l6.38.993-6.738.001v-.5l.077-.494q5.265.82 10.447-.403 5.334-1.259 9.393-4.419l22.76-16.959.3.401-.443.233q-13.442-25.56-33.305-46.344-19.536-20.44-43.998-34.94-24.452-14.493-52.143-22.052-28.139-7.681-57.745-7.681-20.936 0-41.347 4.028-20.254 3.997-39.324 11.827-19.078 7.835-36.328 19.244-17.4 11.51-32.363 26.277-14.977 14.783-26.574 31.823-11.518 16.923-19.346 35.551-7.837 18.647-11.729 38.413-3.926 19.941-3.716 40.408.207 20.7 4.663 40.824 4.341 19.607 12.577 38.057 8.083 18.11 19.63 34.466 11.434 16.197 25.825 30.051 14.387 13.851 31.16 24.809 16.93 11.062 35.631 18.743 19.051 7.823 39.244 11.85 20.728 4.135 41.997 4.133 29.577 0 57.704-7.719 27.621-7.58 52.08-22.117 24.408-14.508 43.983-34.952 19.864-20.749 33.425-46.231l.441.235-.299.401-22.75-16.952q-4.098-3.19-9.126-4.427-4.94-1.215-10.162-.402-5.349.801-9.958 3.69-4.568 2.861-7.686 7.314-10.698 15.416-24.905 27.804-13.998 12.205-30.61 20.783-16.604 8.574-34.836 13.017-18.485 4.504-37.582 4.504h-1.123q-30.048-.206-57.63-11.384-27.639-11.203-49.174-31.957-21.62-20.839-33.57-47.492-12.016-26.803-12.648-55.938-.316-15.284 2.391-30.131 2.691-14.76 8.283-28.614 5.604-13.884 13.94-26.403 8.416-12.645 19.352-23.494 22.023-21.849 50.476-33.534 28.558-11.726 59.984-11.726 19.292 0 37.908 4.598 18.332 4.529 35.004 13.265 16.644 8.723 30.672 21.135 14.201 12.566 24.914 28.208l-.413.283.406-.292zm-.812.584l-.003-.005-.003-.005q-10.643-15.54-24.752-28.024-13.935-12.332-30.473-20.998-16.565-8.68-34.78-13.18-18.498-4.569-37.668-4.569-31.23 0-59.604 11.651-28.269 11.608-50.152 33.319-21.789 21.618-33.068 49.561-11.234 27.83-10.603 58.349.628 28.935 12.562 55.551 11.87 26.476 33.351 47.181 21.394 20.621 48.856 31.75 27.405 11.107 57.254 11.311h1.123q18.978 0 37.345-4.476 18.116-4.414 34.614-12.933 16.506-8.523 30.412-20.649 14.114-12.306 24.743-27.624 3.234-4.619 7.974-7.588 4.786-2.999 10.335-3.83 5.421-.844 10.554.419 5.236 1.288 9.484 4.596l23.096 17.209-.2.379q-13.624 25.606-33.586 46.452-19.669 20.544-44.197 35.121-24.572 14.605-52.324 22.221-28.259 7.755-57.969 7.755-21.368 0-42.192-4.153-20.289-4.044-39.429-11.905-18.79-7.717-35.799-18.83-16.85-11.01-31.306-24.927-14.459-13.919-25.948-30.194-11.603-16.436-19.727-34.636-8.276-18.542-12.64-38.248-4.478-20.226-4.686-41.03-.21-20.57 3.735-40.611 3.912-19.866 11.788-38.607 7.867-18.721 19.442-35.727 11.651-17.12 26.698-31.971 15.031-14.837 32.513-26.4Q176.47 83.55 195.64 75.678q19.16-7.868 39.51-11.883 20.506-4.047 41.54-4.047 29.741 0 58.008 7.716 27.823 7.595 52.39 22.157 24.581 14.57 44.211 35.109 19.96 20.885 33.467 46.569l.2.378-23.087 17.202q-4.232 3.294-9.778 4.603-5.372 1.268-10.83.418l-6.38-.994h6.737v.5l-.077.494q-5.292-.825-9.773-3.625-4.356-2.722-7.409-6.967zM264.33 273.02q7.783 0 15.02-2.789 7.854-3.027 13.828-8.842 5.972-5.814 9.08-13.456 2.862-7.038 2.862-14.607 0-7.568-2.862-14.606-3.108-7.643-9.08-13.457-5.974-5.814-13.829-8.842-7.236-2.788-15.019-2.788t-15.019 2.788q-7.856 3.028-13.829 8.842-5.972 5.813-9.08 13.457-2.863 7.037-2.863 14.606t2.862 14.607q3.11 7.643 9.081 13.456 5.973 5.815 13.83 8.842 7.235 2.789 15.018 2.789zm0 1q-7.969 0-15.379-2.856-8.047-3.101-14.167-9.058-6.122-5.96-9.309-13.796-2.936-7.219-2.936-14.984 0-7.764 2.936-14.983 3.187-7.837 9.31-13.796 6.12-5.958 14.166-9.059 7.41-2.855 15.38-2.855 7.967 0 15.377 2.855 8.046 3.101 14.167 9.059 6.123 5.96 9.31 13.796 2.935 7.219 2.935 14.983t-2.936 14.984q-3.187 7.836-9.309 13.796-6.12 5.957-14.167 9.058-7.409 2.856-15.378 2.856z" fill="#262626" filter="url(#a)"/></svg>